<svg width="23" height="20" viewBox="0 0 23 20" fill="none" xmlns="http://www.w3.org/2000/svg">
<path fill-rule="evenodd" clip-rule="evenodd" d="M0.5 17C0.5 18.6569 1.84315 20 3.5 20H19.5C21.1569 20 22.5 18.6569 22.5 17V6.97565C22.5 5.3188 21.1569 3.97565 19.5 3.97565H17.2796L16.8501 2.2682C16.5147 0.934746 15.3158 0 13.9408 0H9.05924C7.68424 0 6.48526 0.934746 6.14986 2.2682L5.72038 3.97565H3.5C1.84315 3.97565 0.5 5.3188 0.5 6.97565V17ZM3.5 18C2.94772 18 2.5 17.5523 2.5 17V6.97565C2.5 6.42337 2.94771 5.97565 3.5 5.97565H6.18815C6.82981 5.97565 7.38934 5.53944 7.54586 4.91716L8.08944 2.75607C8.20125 2.31158 8.6009 2 9.05924 2H13.9408C14.3991 2 14.7988 2.31158 14.9106 2.75607L15.4541 4.91716C15.6107 5.53944 16.1702 5.97565 16.8118 5.97565H19.5C20.0523 5.97565 20.5 6.42337 20.5 6.97565V17C20.5 17.5523 20.0523 18 19.5 18H3.5ZM11.5 10C12.6046 10 13.5 10.8954 13.5 12C13.5 13.1046 12.6046 14 11.5 14C10.3954 14 9.5 13.1046 9.5 12C9.5 10.8954 10.3954 10 11.5 10ZM11.5 8C13.7091 8 15.5 9.79086 15.5 12C15.5 14.2091 13.7091 16 11.5 16C9.29086 16 7.5 14.2091 7.5 12C7.5 9.79086 9.29086 8 11.5 8ZM17.5 9.03125C18.0523 9.03125 18.5 8.58354 18.5 8.03125C18.5 7.47897 18.0523 7.03125 17.5 7.03125C16.9477 7.03125 16.5 7.47897 16.5 8.03125C16.5 8.58354 16.9477 9.03125 17.5 9.03125Z" fill="white"/>
</svg>
