<svg width="19" height="20" viewBox="0 0 19 20" fill="none" xmlns="http://www.w3.org/2000/svg">
<path fill-rule="evenodd" clip-rule="evenodd" d="M3.5 20H15.5C17.1569 20 18.5 18.6569 18.5 17V6.41421C18.5 5.61857 18.1839 4.8555 17.6213 4.29289L14.2071 0.87868C13.6445 0.316072 12.8814 0 12.0858 0H3.5C1.84315 0 0.5 1.34315 0.5 3V17C0.5 18.6569 1.84315 20 3.5 20ZM2.5 3C2.5 2.44772 2.94772 2 3.5 2H10.5V6.6C10.5 7.3732 11.1268 8 11.9 8H16.5V17C16.5 17.5523 16.0523 18 15.5 18H3.5C2.94772 18 2.5 17.5523 2.5 17V3ZM16.4102 6C16.361 5.89201 16.2926 5.79262 16.2071 5.70711L12.7929 2.29289C12.7074 2.20738 12.608 2.13896 12.5 2.08982V6H16.4102Z" fill="white"/>
</svg>
