<svg width="30" height="24" viewBox="0 0 30 24" fill="none" xmlns="http://www.w3.org/2000/svg">
<path fill-rule="evenodd" clip-rule="evenodd" d="M4 0C4.55228 0 5 0.447715 5 1V3.375H9.64922L9.92313 3.15587C11.3641 2.00306 13.1546 1.375 15 1.375C16.8454 1.375 18.6359 2.00306 20.0769 3.15587L20.3508 3.375H25V1C25 0.447715 25.4477 0 26 0C26.5523 0 27 0.447715 27 1V3.375V5.625V12.7292C27.6224 13.4343 28 14.3606 28 15.375V15.384C29.1213 15.485 30 16.4274 30 17.575V20.175C30 21.39 29.015 22.375 27.8 22.375H26V23C26 23.5523 25.5523 24 25 24C24.4477 24 24 23.5523 24 23V22.375H6V23C6 23.5523 5.55228 24 5 24C4.44772 24 4 23.5523 4 23V22.375H2.2C0.984991 22.375 0 21.39 0 20.175V17.575C0 16.4274 0.8787 15.485 2 15.384V15.375C2 14.3606 2.37764 13.4343 3 12.7292V5.625V3.375V1C3 0.447715 3.44772 0 4 0ZM25 5.625V5.375H19.6492L18.8275 4.71761C17.7411 3.8485 16.3913 3.375 15 3.375C13.6087 3.375 12.2589 3.8485 11.1725 4.71761L10.3508 5.375H5V5.625V11.375H6H6.45196C6.86379 10.2098 7.97503 9.375 9.28125 9.375H11.2812C12.5875 9.375 13.6987 10.2098 14.1105 11.375H15.8895C16.3013 10.2098 17.4125 9.375 18.7188 9.375H20.7188C22.025 9.375 23.1362 10.2098 23.548 11.375H24H25V5.625ZM27.8 20.375H25H5H2.2C2.08954 20.375 2 20.2855 2 20.175V17.575C2 17.4645 2.08954 17.375 2.2 17.375H27.8C27.9105 17.375 28 17.4645 28 17.575V20.175C28 20.2855 27.9105 20.375 27.8 20.375ZM26 15.375C26 14.2704 25.1046 13.375 24 13.375H22.7188H16.7188H13.2812H7.28125H6C4.89543 13.375 4 14.2704 4 15.375H26Z" fill="#4CAF50"/>
</svg>
