<svg width="20" height="20" viewBox="0 0 20 20" fill="none" xmlns="http://www.w3.org/2000/svg">
<path fill-rule="evenodd" clip-rule="evenodd" d="M0.56556 0.0992931C0.911342 -0.0674901 1.32208 -0.0215965 1.62252 0.217393L6.6835 4.24317L12.2394 0.191986C12.5905 -0.0640037 13.0667 -0.0640037 13.4177 0.191986L19.5892 4.69199C19.8473 4.88023 20 5.18049 20 5.49999V19C20 19.3763 19.7887 19.7208 19.4532 19.8914C19.1178 20.062 18.7149 20.0297 18.4108 19.808L12.8286 15.7376L7.24632 19.808C6.88271 20.0731 6.38679 20.0627 6.03462 19.7826L0.377476 15.2826C0.138973 15.0929 0 14.8048 0 14.5V0.999994C0 0.61609 0.219777 0.266076 0.56556 0.0992931ZM11.8281 2.9671L7.64062 6.02048V17.0453L11.8281 13.9919V2.9671ZM13.8281 2.96645V13.9912L18 17.0332V6.00844L13.8281 2.96645ZM2 3.07324L5.64062 5.96919V16.9136L2 14.0177V3.07324Z" fill="#3B3E5B"/>
</svg>
