<svg width="21" height="20" viewBox="0 0 21 20" fill="none" xmlns="http://www.w3.org/2000/svg">
<path fill-rule="evenodd" clip-rule="evenodd" d="M13.3125 3.92188V0.487984C13.3125 0.193227 12.9798 0.0213761 12.7394 0.192001L7.59833 3.9407C7.34017 4.12894 7.1875 4.42921 7.1875 4.74871V17.6094V19.5187C7.1875 19.8061 7.51166 19.9739 7.74632 19.808L12.9017 16.0489C13.1598 15.8607 13.3125 15.5604 13.3125 15.2409V3.92188ZM15.3125 16.6758C15.3125 16.9953 15.4652 17.2956 15.7233 17.4838L18.9108 19.808C19.2149 20.0298 19.6178 20.062 19.9532 19.8914C20.2887 19.7208 20.5 19.3764 20.5 19V5.50001C20.5 5.18051 20.3473 4.88024 20.0892 4.692L15.9482 1.67252C15.6838 1.47978 15.3125 1.66858 15.3125 1.99572V16.6758ZM2.12252 0.217408L4.81002 2.35519C5.04853 2.54491 5.1875 2.83304 5.1875 3.13779V17.8817C5.1875 18.2166 4.80057 18.4033 4.53849 18.1948L0.877476 15.2826C0.638973 15.0929 0.5 14.8048 0.5 14.5V1.00001C0.5 0.616105 0.719777 0.266091 1.06556 0.0993083C1.41134 -0.0674749 1.82208 -0.0215812 2.12252 0.217408Z" fill="#252849"/>
</svg>
