<?xml version="1.0" encoding="iso-8859-1"?>
<!-- Generator: Adobe Illustrator 19.0.0, SVG Export Plug-In . SVG Version: 6.00 Build 0)  -->
<svg version="1.1" id="Layer_1" xmlns="http://www.w3.org/2000/svg" xmlns:xlink="http://www.w3.org/1999/xlink" x="0px" y="0px"
	 viewBox="0 0 330 330" style="enable-background:new 0 0 330 330;" xml:space="preserve">
<path id="XMLID_106_" d="M289.85,312.879l-10-70C278.794,235.489,272.465,230,265,230h-35.371l-4.637-185.375
	c-0.122-4.881-2.612-9.397-6.675-12.105l-44.998-30c-5.037-3.359-11.603-3.359-16.642,0l-44.996,30
	c-4.062,2.708-6.552,7.225-6.674,12.105L100.371,230H65c-7.465,0-13.794,5.489-14.85,12.879l-10,70
	c-0.614,4.305,0.669,8.664,3.518,11.949C46.518,328.113,50.651,330,55,330h220c4.349,0,8.482-1.887,11.332-5.172
	C289.181,321.543,290.464,317.184,289.85,312.879z M134.804,53.16l30.195-20.132l30.197,20.132L199.62,230h-69.24L134.804,53.16z
	 M72.295,300l5.715-40H115h100h36.99l5.715,40H72.295z"/>
<g>
</g>
<g>
</g>
<g>
</g>
<g>
</g>
<g>
</g>
<g>
</g>
<g>
</g>
<g>
</g>
<g>
</g>
<g>
</g>
<g>
</g>
<g>
</g>
<g>
</g>
<g>
</g>
<g>
</g>
</svg>
