<svg width="30" height="26" viewBox="0 0 30 26" fill="none" xmlns="http://www.w3.org/2000/svg">
<path fill-rule="evenodd" clip-rule="evenodd" d="M15.3939 0.080855C15.1424 -0.0269517 14.8576 -0.0269517 14.6061 0.080855L0.606081 6.08085C0.238397 6.23843 0 6.59997 0 7V10.1875C0 10.7398 0.447715 11.1875 1 11.1875H2V12.7875C2 13.4863 2.51193 14.0655 3.1812 14.1705L2.81802 24H1C0.447715 24 0 24.4477 0 25C0 25.5523 0.447715 26 1 26H29C29.5523 26 30 25.5523 30 25C30 24.4477 29.5523 24 29 24H27.1821L26.8189 14.1705C27.4881 14.0654 28 13.4862 28 12.7875V11.1875H29C29.5523 11.1875 30 10.7398 30 10.1875V7C30 6.59997 29.7616 6.23843 29.3939 6.08085L15.3939 0.080855ZM26 11.1875H22V12.1875H26V11.1875ZM20 9.1875H28V7.6594L15 2.08797L2 7.6594V9.1875H10H11H19H20ZM20 11.1875V12.7875C20 13.4863 20.5119 14.0655 21.1812 14.1705L20.818 24H18.1821L17.8189 14.1705C18.4881 14.0654 19 13.4862 19 12.7875V11.1875H20ZM23.182 14.1875L22.8194 24H25.1807L24.8182 14.1875H23.182ZM4 11.1875H8V12.1875H4V11.1875ZM11 11.1875H10V12.7875C10 13.4862 9.48814 14.0654 8.81893 14.1705L9.18211 24H11.818L12.1812 14.1705C11.5119 14.0655 11 13.4863 11 12.7875V11.1875ZM5.18197 14.1875H6.81817L7.18072 24H4.81942L5.18197 14.1875ZM13 11.1875V12.1875H17V11.1875H13ZM15.8182 14.1875H14.182L13.8194 24H16.1807L15.8182 14.1875ZM14.6061 4.08085C14.8576 3.97305 15.1424 3.97305 15.3939 4.08085L18.8939 5.58085C19.4016 5.79841 19.6367 6.38629 19.4192 6.89392C19.2016 7.40155 18.6137 7.6367 18.1061 7.41915L15 6.08797L11.8939 7.41915C11.3863 7.6367 10.7984 7.40155 10.5809 6.89392C10.3633 6.38629 10.5985 5.79841 11.1061 5.58085L14.6061 4.08085Z" fill="#4CAF50"/>
</svg>
