<svg width="71" height="103" viewBox="0 0 71 103" fill="none" xmlns="http://www.w3.org/2000/svg">
<path fill-rule="evenodd" clip-rule="evenodd" d="M32.4964 26.0092C28.2783 26.0092 24.8589 29.4286 24.8589 33.6467V59.1769L22.7744 57.5413C19.2924 54.8093 14.2864 55.2548 11.3416 58.5588C8.75248 61.4636 8.50267 65.7683 10.7384 68.9531L22.0057 85.0037C24.0081 87.8562 25.4373 91.0704 26.2138 94.4679C27.2508 99.0045 31.2863 102.222 35.9399 102.222H50.8553C56.919 102.222 62.1773 98.0296 63.5285 92.1184L64.1584 89.3624C68.184 83.9609 70.3589 77.4038 70.3589 70.6664V60.2967H70.3584V59.9717C70.3584 55.7536 66.939 52.3342 62.7209 52.3342C61.7671 52.3342 60.8541 52.509 60.0122 52.8284C59.125 49.5929 56.1631 47.2154 52.6459 47.2154C51.6414 47.2154 50.6822 47.4093 49.8037 47.7618C48.7799 44.7506 45.9284 42.5842 42.5709 42.5842C41.7188 42.5842 40.8992 42.7237 40.1339 42.9812V33.6467C40.1339 29.4286 36.7145 26.0092 32.4964 26.0092ZM60.2834 59.9717V60.7029V64.8467C60.2834 66.2826 59.1194 67.4467 57.6834 67.4467C56.2475 67.4467 55.0834 66.2826 55.0834 64.8467V60.7029V59.9717V54.8529C55.0834 53.5067 53.9921 52.4154 52.6459 52.4154C51.2998 52.4154 50.2084 53.5067 50.2084 54.8529V58.1029V60.7029C50.2084 62.1388 49.0444 63.3029 47.6084 63.3029C46.1725 63.3029 45.0084 62.1388 45.0084 60.7029V58.1029V54.8529V50.2217C45.0084 48.8755 43.9171 47.7842 42.5709 47.7842C41.2403 47.7842 40.1587 48.8504 40.1339 50.1751V51.3592H40.1334V58.1029C40.1334 59.5388 38.9694 60.7029 37.5334 60.7029C36.0975 60.7029 34.9334 59.5388 34.9334 58.1029V50.2217L34.9339 50.1392V33.6467C34.9339 32.3005 33.8426 31.2092 32.4964 31.2092C31.1502 31.2092 30.0589 32.3005 30.0589 33.6467V64.5217C30.0589 65.5167 29.491 66.4244 28.5962 66.8597C27.7015 67.295 26.6368 67.1814 25.8539 66.5672L19.5645 61.6324C18.2424 60.595 16.3416 60.7642 15.2235 62.0187C14.2404 63.1217 14.1455 64.7561 14.9944 65.9654L26.2617 82.016C28.6511 85.4197 30.3564 89.2551 31.2831 93.3092C31.7796 95.4813 33.7118 97.0217 35.9399 97.0217H50.8553C54.4935 97.0217 57.6485 94.5064 58.4592 90.9597L59.099 88.1606C59.2542 87.4816 59.5498 86.8426 59.9668 86.2847C63.3375 81.7753 65.1589 76.2964 65.1589 70.6664V64.8948C65.1586 64.8788 65.1584 64.8627 65.1584 64.8467V59.9717C65.1584 58.6255 64.0671 57.5342 62.7209 57.5342C61.3748 57.5342 60.2834 58.6255 60.2834 59.9717Z" fill="#252849"/>
<path d="M57.9029 38.8346C58.6118 35.889 58.8141 32.7686 58.4231 29.5844C56.6731 15.332 43.7007 5.19684 29.4483 6.94681C15.1959 8.69679 5.06072 21.6692 6.81069 35.9216C7.40861 40.7913 9.31664 45.1803 12.1382 48.7788" stroke="#252849" stroke-width="5.2" stroke-linecap="round"/>
<path d="M19.1461 37.9727C18.607 36.5806 18.2763 35.0807 18.194 33.5088C17.7764 25.5423 23.8961 18.7457 31.8626 18.3282C39.8292 17.9107 46.6257 24.0304 47.0432 31.9969C47.1256 33.5687 46.9535 35.0951 46.5629 36.5358" stroke="#252849" stroke-width="5.2" stroke-linecap="round"/>
</svg>
