<svg width="90" height="90" viewBox="0 0 90 90" fill="none" xmlns="http://www.w3.org/2000/svg">
<path fill-rule="evenodd" clip-rule="evenodd" d="M60.6001 5.67498C60.6001 2.8031 58.2719 0.474976 55.4001 0.474976H52.1501C49.2782 0.474976 46.9501 2.8031 46.9501 5.67498V6.73123H43.0501V5.67498C43.0501 2.8031 40.7219 0.474976 37.8501 0.474976H34.6001C31.7282 0.474976 29.4001 2.8031 29.4001 5.67498V6.73123H4.9438V41.2625H13.8V52.15C6.62035 52.15 0.800049 57.9703 0.800049 65.15V81.725C0.800049 86.0328 4.29223 89.525 8.60005 89.525H13.8H19H71.0001H76.2001H81.4001C85.7079 89.525 89.2001 86.0328 89.2001 81.725V65.15C89.2001 57.9703 83.3798 52.15 76.2001 52.15V41.2625H85.055V6.73123H60.6001V5.67498ZM29.4001 11.9312H10.1438V36.0625H13.8V34.925C13.8 25.7561 20.5801 18.1709 29.4001 16.9093V11.9312ZM34.6001 16.725H37.8501V5.67498H34.6001V16.725ZM43.0501 21.925H32C31.1096 21.925 30.2401 22.0145 29.4001 22.185V39.0687C29.4001 44.5094 32.7423 49.1695 37.4856 51.1077C38.402 47.8191 41.4193 45.4062 45 45.4062C48.5808 45.4062 51.5981 47.8191 52.5145 51.1077C57.2578 49.1695 60.6001 44.5094 60.6001 39.0687V22.185C59.76 22.0145 58.8905 21.925 58.0001 21.925H46.9501H43.0501ZM43.0501 16.725V11.9312H46.9501V16.725H43.0501ZM55.4001 16.725H52.1501V5.67498H55.4001V16.725ZM60.6001 11.9312V16.9093C69.42 18.1709 76.2001 25.7561 76.2001 34.925V36.0625H79.855V11.9312H60.6001ZM71.0001 84.325V74.9252C64.0481 77.4845 56.6883 78.8 49.2587 78.8H41.0658C33.5205 78.8 26.0472 77.4432 19 74.8048V84.325H71.0001ZM19 69.2168C25.9922 72.1088 33.4894 73.6 41.0658 73.6H49.2587C56.718 73.6 64.1007 72.1545 71.0001 69.3498V52.15V34.925C71.0001 30.6719 68.9576 26.8958 65.8 24.524V39.0687C65.8 47.3253 60.302 54.2978 52.7674 56.5247C52.4047 60.4958 49.0656 63.6062 45 63.6062C40.9345 63.6062 37.5954 60.4958 37.2327 56.5247C29.6981 54.2978 24.2001 47.3253 24.2001 39.0687V24.524C21.0425 26.8958 19 30.6719 19 34.925V52.15V69.2168ZM13.8 84.325V67.5875H6.00005V81.725C6.00005 83.1609 7.16411 84.325 8.60005 84.325H13.8ZM6.50337 62.3875H13.8V57.35C10.4649 57.35 7.61867 59.4432 6.50337 62.3875ZM76.2001 57.35V62.3875H83.4967C82.3814 59.4432 79.5352 57.35 76.2001 57.35ZM84.0001 67.5875H76.2001V84.325H81.4001C82.836 84.325 84.0001 83.1609 84.0001 81.725V67.5875ZM45 58.4062C43.5641 58.4062 42.4001 57.2422 42.4001 55.8062V53.2062C42.4001 51.7703 43.5641 50.6062 45 50.6062C46.436 50.6062 47.6001 51.7703 47.6001 53.2062V55.8062C47.6001 57.2422 46.436 58.4062 45 58.4062Z" fill="#252849"/>
</svg>
