<svg width="22" height="28" viewBox="0 0 22 28" fill="none" xmlns="http://www.w3.org/2000/svg">
<path fill-rule="evenodd" clip-rule="evenodd" d="M13.2489 0C10.211 0 7.62524 1.92654 6.64291 4.62322C2.83137 5.54304 0 8.97425 0 13.0685C0 17.8665 3.88953 21.756 8.6875 21.756C9.13335 21.756 9.57168 21.7224 10 21.6574V26H6C5.44772 26 5 26.4477 5 27C5 27.5523 5.44772 28 6 28H11H16C16.5523 28 17 27.5523 17 27C17 26.4477 16.5523 26 16 26H12V21.3431C12.7734 21.6108 13.6033 21.756 14.4655 21.756C18.6266 21.756 21.9998 18.3828 21.9998 14.2218C21.9998 12.2344 21.2294 10.426 19.9731 9.08059C20.1712 8.4306 20.2776 7.74137 20.2776 7.02871C20.2776 3.14686 17.1308 0 13.2489 0ZM12 19.1896C12.0419 19.2028 12.0832 19.2189 12.1234 19.2377C12.8335 19.5699 13.6264 19.756 14.4655 19.756C17.522 19.756 19.9998 17.2783 19.9998 14.2218C19.9998 12.5805 19.2866 11.1071 18.15 10.0922C17.8323 9.8085 17.7292 9.35472 17.893 8.96158C18.1405 8.36784 18.2776 7.71556 18.2776 7.02871C18.2776 4.25143 16.0262 2 13.2489 2C10.9181 2 8.95531 3.58666 8.38649 5.74043C8.28599 6.12096 7.97162 6.40716 7.58335 6.47159C4.41552 6.99728 2 9.75179 2 13.0685C2 16.7619 4.9941 19.756 8.6875 19.756C9.13724 19.756 9.57603 19.7118 10 19.6275V14.7882C9.99227 14.7809 9.98462 14.7735 9.97707 14.7659L7.63698 12.4259C7.24646 12.0353 7.24646 11.4022 7.63698 11.0116C8.0275 10.6211 8.66067 10.6211 9.05119 11.0116L10 11.9605V9.3125C10 8.76021 10.4477 8.3125 11 8.3125C11.5523 8.3125 12 8.76021 12 9.3125L12 14.9607L12.9491 14.0116C13.3396 13.6211 13.9727 13.6211 14.3633 14.0116C14.7538 14.4022 14.7538 15.0353 14.3633 15.4259L12.0232 17.7659C12.0155 17.7736 12.0078 17.7811 12 17.7884V19.1896Z" fill="#4CAF50"/>
</svg>
