<svg width="25" height="24" viewBox="0 0 25 24" fill="none" xmlns="http://www.w3.org/2000/svg">
<path fill-rule="evenodd" clip-rule="evenodd" d="M4.5 3.5H20.5C22.1569 3.5 23.5 4.84314 23.5 6.5V17.5C23.5 19.1569 22.1569 20.5 20.5 20.5H4.5C2.84315 20.5 1.5 19.1569 1.5 17.5V6.5C1.5 4.84315 2.84315 3.5 4.5 3.5ZM4.5 5.5C3.94772 5.5 3.5 5.94772 3.5 6.5V17.5C3.5 18.0523 3.94772 18.5 4.5 18.5H20.5C21.0523 18.5 21.5 18.0523 21.5 17.5V6.5C21.5 5.94772 21.0523 5.5 20.5 5.5H4.5Z" fill="white"/>
<path fill-rule="evenodd" clip-rule="evenodd" d="M9.12521 10C9.42823 10 9.71491 10.1374 9.90472 10.3736L14.769 16.427L17.3609 13.3551C17.5509 13.1299 17.8306 13 18.1252 13C18.4199 13 18.6995 13.1299 18.8895 13.3551L22.2645 17.3551L20.7359 18.6449L18.1252 15.5507L15.5145 18.6449C15.3218 18.8733 15.037 19.0035 14.7382 18.9999C14.4394 18.9964 14.1579 18.8593 13.9707 18.6264L9.12521 12.5964L4.27972 18.6264L2.7207 17.3736L8.3457 10.3736C8.53551 10.1374 8.82219 10 9.12521 10Z" fill="white"/>
<circle cx="15.5" cy="9.5" r="2" fill="white"/>
</svg>
