<svg width="21" height="22" viewBox="0 0 21 22" fill="none" xmlns="http://www.w3.org/2000/svg">
<path fill-rule="evenodd" clip-rule="evenodd" d="M20.5 3C20.5 4.65685 19.1569 6 17.5 6C16.1938 6 15.0825 5.16519 14.6707 4H5.5C3.84315 4 2.5 5.34315 2.5 7V7.25926C2.5 8.91611 3.84315 10.2593 5.5 10.2593H15.6296C18.3195 10.2593 20.5 12.4398 20.5 15.1296C20.5 17.8195 18.3195 20 15.6296 20H13.9142L14.2071 20.2929C14.5977 20.6834 14.5977 21.3166 14.2071 21.7071C13.8166 22.0976 13.1834 22.0976 12.7929 21.7071L10.0858 19L12.7929 16.2929C13.1834 15.9024 13.8166 15.9024 14.2071 16.2929C14.5977 16.6834 14.5977 17.3166 14.2071 17.7071L13.9142 18H15.6296C17.2149 18 18.5 16.7149 18.5 15.1296C18.5 13.5444 17.2149 12.2593 15.6296 12.2593H5.5C2.73858 12.2593 0.5 10.0207 0.5 7.25926V7C0.5 4.23858 2.73858 2 5.5 2H14.6707C15.0825 0.834808 16.1938 0 17.5 0C19.1569 0 20.5 1.34315 20.5 3ZM3.5 22C5.15685 22 6.5 20.6569 6.5 19C6.5 17.3431 5.15685 16 3.5 16C1.84315 16 0.5 17.3431 0.5 19C0.5 20.6569 1.84315 22 3.5 22Z" fill="white"/>
</svg>
